<?xml version="1.0" standalone="no"?>
<!DOCTYPE svg PUBLIC "-//W3C//DTD SVG 1.1//EN" "http://www.w3.org/Graphics/SVG/1.1/DTD/svg11.dtd">
<svg width="100%" height="100%" viewBox="0 0 920 137" version="1.1" xmlns="http://www.w3.org/2000/svg" xmlns:xlink="http://www.w3.org/1999/xlink" xml:space="preserve" style="fill-rule:evenodd;clip-rule:evenodd;stroke-linejoin:round;stroke-miterlimit:1.41421;">
    <g>
        <rect x="656" y="1" width="14" height="103" style="fill:rgb(14,105,55);"/>
        <path d="M23.7,53.8C11.2,80.6 1,102.9 1,103.3C1,103.7 4.4,104 8.5,103.8L16.1,103.5L21.2,92.2L26.3,81L46.4,81.2L66.4,81.5L71.4,92.7L76.3,104L84.2,104C88.6,104 91.9,103.7 91.7,103.2C91.5,102.8 81.5,80.6 69.5,53.7C57.5,26.9 47.4,5 47,5C46.7,5 36.2,26.9 23.7,53.8ZM53.9,52.4C57.3,60 60,66.7 60,67.1C60,68.2 33,68.3 33,67.2C32.9,65.3 46.4,37 47.1,37.7C47.5,38.1 50.6,44.8 53.9,52.4Z" style="fill:black;"/>
        <path d="M383,9.8C357.7,16.6 341.9,43.9 348.5,69.3C350.8,78.2 354.7,84.9 361.4,91.5C375.7,105.8 397,109.7 415.5,101.5L421,99.1L421,82.2L414.5,86.5C407.3,91.4 402.8,92.4 392.3,91.8C377.9,91 366.2,80.9 362.4,66C359.1,52.9 363.2,39.6 373.5,30.2C385.1,19.6 402.1,18.7 416,28L420.5,31L420.8,23.3C421.1,14.3 420.8,13.9 412.5,10.8C404.3,7.9 391.6,7.4 383,9.8Z" style="fill:rgb(14,105,55);"/>
        <path d="M320.5,12.2C317.3,14.1 316.1,16.2 316,20.3C316,28 324.7,31.7 330.7,26.6C334.6,23.2 334.6,16.8 330.7,13.4C327.7,10.8 323.7,10.4 320.5,12.2Z" style="fill:black;"/>
        <path d="M790.9,13.9C788.9,15.9 788,17.8 788,20C788,22.2 788.9,24.1 790.9,26.1C794.6,29.7 798.8,29.9 802.7,26.6C804.9,24.7 805.5,23.4 805.5,20C805.5,11.8 796.7,8.101 790.9,13.9Z" style="fill:rgb(14,105,55);"/>
        <path d="M756,34L756,45L753,45L750,45L750,57L756,57L756,104L770,104L770,57L780,57L780,45L775,45L770,45L770,23L763,23L756,23L756,34Z" style="fill:rgb(14,105,55);"/>
        <path d="M121.5,44.6C119.9,45.4 117.7,46.9 116.8,47.7C115.1,49.2 115,49.1 115,47.2C115,45.2 114.5,45 108,45L101,45L101,104L114.9,104L115.2,83.6C115.5,64.7 115.7,62.9 117.6,60.3C122.1,54.2 128.3,53.8 132.4,59.4C134.3,61.9 134.5,63.8 134.8,83.1L135.1,104L148.8,104L149.2,83.6C149.5,64.7 149.7,62.9 151.6,60.3C156.1,54.2 162.3,53.8 166.4,59.4C168.3,61.9 168.5,63.8 168.8,83.1L169.1,104L183,104L183,83.2C182.9,61.2 182.2,55.5 178.7,50.2C172.7,41.3 156.4,40.5 147.7,48.8L145,51.4L143.4,49.1C139.6,43.8 127.7,41.3 121.5,44.6Z" style="fill:black;"/>
        <path d="M217,43.9C212,45.4 208.1,48 204.6,52.1C199.6,58 197.5,64.7 197.5,75C197.5,82.7 197.8,84.2 200.8,90.3C206.3,101.4 216.5,106.9 229.6,105.7C239.7,104.7 246,101.1 252.2,92.6L255.1,88.6L249.3,85.4L243.6,82.1L239,87.1C235.8,90.7 233.4,92.4 230.7,93C223.7,94.5 216,90.7 213.4,84.4C210.6,77.7 209.8,78 233.1,78L254.3,78L253.8,70.2C253.5,64.1 252.7,61.3 250.4,57C247.2,51 240.9,45.6 235.2,44C231,42.9 220.7,42.8 217,43.9ZM230.1,56C233.7,57 238.2,61 239.3,64.2C239.9,65.9 238.9,66 226.5,66C218.9,66 213,65.6 213,65.1C213,63.3 218.4,57.7 221.5,56.4C225.2,54.8 225.6,54.8 230.1,56Z" style="fill:black;"/>
        <path d="M289.5,44.6C287.9,45.4 285.7,46.9 284.8,47.7C283.1,49.2 283,49.1 283,47.2C283,45.2 282.5,45 276,45L269,45L269,104L282.8,104L283.2,84.1C283.5,65.7 283.7,63.9 285.6,61.3C286.7,59.8 289,57.9 290.6,57.1C293.1,55.9 294,55.9 297.8,57.2L302.1,58.8L305.1,52.8C306.8,49.5 308,46.7 307.8,46.5C303.7,43 294.4,42 289.5,44.6Z" style="fill:black;"/>
        <path d="M452.3,44.6C446.7,46.6 440.4,52.9 437.2,59.8C433.5,67.6 433.4,80.8 436.9,88.7C441.2,98.4 452.2,106 462,106C466,106 473.4,103.5 476.8,101.1C480.6,98.4 481,98.5 481,101.5C481,103.9 481.2,104 487.5,104L494,104L494,45L487.5,45L481,45L481,51.2L477.5,48.6C470.4,43.1 460.8,41.6 452.3,44.6ZM473.5,58C484,64.5 483.9,84.6 473.2,91.2C469.1,93.7 461.7,94 457.2,91.6C455.5,90.7 452.8,88.1 451.2,85.8C448.9,82.2 448.5,80.6 448.5,74.5C448.5,68.3 448.9,66.8 451.3,63.1C456.5,55.3 465.7,53.2 473.5,58Z" style="fill:rgb(14,105,55);"/>
        <path d="M534,44.6C532.1,45.4 529.5,47.1 528.3,48.2L526,50.3L526,47.7C526,45 525.9,45 519,45L512,45L512,104L526,104L526,86.2C526.1,66.8 526.7,62 530,58.5C534.7,53.5 545.7,54.8 548.2,60.7C548.9,62.4 549.5,71.5 549.8,83.7L550.2,104L563,104L563,82.2C563,58.9 562.4,54.8 558.3,49.9C553,43.6 541.9,41.2 534,44.6Z" style="fill:rgb(14,105,55);"/>
        <path d="M596.3,44.6C590.7,46.6 584.4,52.9 581.2,59.8C577.5,67.6 577.4,80.8 580.9,88.7C585.2,98.4 596.2,106 606,106C610,106 617.4,103.5 620.8,101.1C624.6,98.4 625,98.5 625,101.5C625,103.9 625.2,104 631.5,104L638,104L638,45L631.5,45L625,45L625,51.2L621.5,48.6C614.4,43.1 604.8,41.6 596.3,44.6ZM617.5,58C628,64.5 627.9,84.6 617.2,91.2C613.1,93.7 605.7,94 601.2,91.6C599.5,90.7 596.8,88.1 595.2,85.8C592.9,82.2 592.5,80.6 592.5,74.5C592.5,68.3 592.9,66.8 595.3,63.1C600.5,55.3 609.7,53.2 617.5,58Z" style="fill:rgb(14,105,55);"/>
        <path d="M841.5,44.3C835.3,46.4 831.8,48.5 827.7,52.7C821.6,58.7 819.7,63.3 819.2,73.2C818.8,80.8 819.1,82.4 821.3,87.2C824.4,94.2 829.8,99.6 836.9,102.9C844.4,106.3 856.1,106.5 863.3,103.3L868,101.1L868,83.8L864.1,87.3C858.6,92.3 856.3,93.3 850.6,93.3C844.4,93.4 840.1,91.3 836.3,86.3C833.8,83 833.5,81.9 833.5,74.5C833.5,67.1 833.8,66 836.3,62.7C843.3,53.5 854.6,52.9 863.6,61.2L868,65.3L868,47.2L863.8,45.5C858.2,43.2 846.7,42.6 841.5,44.3Z" style="fill:rgb(14,105,55);"/>
        <path d="M890,45.2C881.3,49.7 877.9,59.2 882.1,67.7C884.3,72 885.5,73 894,77.5C903.8,82.7 906.5,85.5 905.1,89.4C904.1,92.2 899.6,94.3 896.7,93.4C895.5,93 893.1,91.2 891.4,89.3L888.2,85.9L882.6,88.7L876.9,91.6L879.9,96.1C885.1,103.9 894.8,107.5 904,105C915.2,102 921.5,92 918.9,81.5C917.4,75.8 914.8,73.5 903.8,67.8C893.4,62.5 891.5,60.3 894.6,56.9C897,54.3 898.7,54.5 902,57.9L904.9,60.7L910.5,57.6L916.1,54.4L913.1,50.3C907.9,43.2 898.3,41.1 890,45.2Z" style="fill:rgb(14,105,55);"/>
        <rect x="318" y="45" width="14" height="59" style="fill:black;"/>
        <path d="M680,45.4C680,45.5 685.9,56.4 693.1,69.4L706.1,93L695.1,113.9C689,125.3 684,135 684,135.4C684,135.8 687.4,136 691.6,135.8L699.1,135.5L714.4,106C722.8,89.8 733.3,69.4 737.7,60.7L745.8,45L738.1,45L730.5,45L722.5,61.1C718.1,69.9 714.2,77.4 713.8,77.6C713.4,77.8 709.2,70.6 704.4,61.5L695.7,45L687.9,45C683.5,45 680,45.2 680,45.4Z" style="fill:rgb(14,105,55);"/>
        <rect x="790" y="45" width="14" height="59" style="fill:rgb(14,105,55);"/>
    </g>
</svg>
